<?xml version="1.0" encoding="UTF-8"?>
<svg version="1.1" xmlns="http://www.w3.org/2000/svg" width="311" height="311">
<path d="M0 0 C102.63 0 205.26 0 311 0 C311 102.63 311 205.26 311 311 C208.37 311 105.74 311 0 311 C0 208.37 0 105.74 0 0 Z " fill="#F9F9F9" transform="translate(0,0)"/>
<path d="M0 0 C47.52 0 95.04 0 144 0 C144 0.33 144 0.66 144 1 C143.40799805 1.05945801 142.81599609 1.11891602 142.20605469 1.18017578 C114.64834757 4.06338098 88.37782691 12.01399595 66 29 C65.17113281 29.62132813 64.34226562 30.24265625 63.48828125 30.8828125 C47.30212963 43.43533825 34.61424073 57.53199239 24 75 C23.39542969 75.928125 22.79085938 76.85625 22.16796875 77.8125 C13.24105826 91.99883179 8.06963814 108.61032494 5 125 C4.82339844 125.87865723 4.64679687 126.75731445 4.46484375 127.66259766 C2.98631347 135.56251079 2.68850543 143.22495904 2.75 151.25 C2.75676758 152.52762207 2.76353516 153.80524414 2.77050781 155.12158203 C3.20455065 194.80621918 18.86140124 229.63829583 45 259 C45.62003906 259.70511719 46.24007812 260.41023438 46.87890625 261.13671875 C57.85570556 272.850216 71.81108056 281.72181364 86 289 C86.65347412 289.3388623 87.30694824 289.67772461 87.98022461 290.02685547 C100.35846686 296.34988844 113.38420071 300.34711524 127 303 C127.8859082 303.17950195 128.77181641 303.35900391 129.68457031 303.54394531 C137.57536713 305.01937494 145.23463217 305.31142044 153.25 305.25 C155.16643311 305.23984863 155.16643311 305.23984863 157.12158203 305.22949219 C196.80621918 304.79544935 231.63829583 289.13859876 261 263 C262.05767578 262.06994141 262.05767578 262.06994141 263.13671875 261.12109375 C290.36622076 235.60413904 305.53576532 196.85900825 307.12597656 160.08691406 C308.02242651 125.67004437 300.18762601 91.91315875 279 64 C278.37867188 63.17113281 277.75734375 62.34226563 277.1171875 61.48828125 C264.6631001 45.42906329 250.53351112 32.29469545 233 22 C232.37174316 21.62633301 231.74348633 21.25266602 231.09619141 20.86767578 C211.6955474 9.48551161 191.18974091 3.90008036 169 1 C169 0.67 169 0.34 169 0 C215.86 0 262.72 0 311 0 C311 102.63 311 205.26 311 311 C208.37 311 105.74 311 0 311 C0 208.37 0 105.74 0 0 Z " fill="#010101" transform="translate(0,0)"/>
<path d="M0 0 C3.31633923 2.72771119 4.79722602 6.37373362 6.5546875 10.18359375 C7.06120598 11.26138344 7.06120598 11.26138344 7.57795715 12.36094666 C8.68323926 14.71692072 9.77917278 17.07711529 10.875 19.4375 C11.6437517 21.08114245 12.41304399 22.72453216 13.18286133 24.36767578 C15.10904168 28.48348591 17.02743017 32.60286517 18.94232178 36.72393799 C19.90796489 38.80194579 20.8747975 40.87939347 21.84228516 42.95654297 C24.51053439 48.68687037 27.17244133 54.42008885 29.828125 60.15625 C33.18377622 67.40245077 36.55890633 74.63947733 39.9375 81.875 C40.22829437 82.49783875 40.51908875 83.12067749 40.81869507 83.76239014 C42.29026412 86.91426 43.76201535 90.06604474 45.23388672 93.21777344 C47.86574346 98.85365032 50.49580879 104.49036317 53.12600708 110.12701416 C54.58393113 113.25137712 56.04197146 116.37568581 57.5 119.5 C58.08333389 120.74999974 58.66666722 121.99999974 59.25 123.25 C59.53875 123.86875 59.8275 124.4875 60.125 125.125 C76.74999999 160.74999999 76.74999999 160.74999999 77.62487793 162.6247406 C78.20861594 163.8756063 78.79235617 165.12647097 79.37609863 166.37733459 C80.82825868 169.48908082 82.28038084 172.60084472 83.73242188 175.71264648 C86.4308036 181.4953203 89.12954033 187.27782758 91.82958984 193.0597229 C93.08494291 195.74799965 94.34008604 198.4363744 95.59521484 201.12475586 C96.1852801 202.3884763 96.77544465 203.6521504 97.36572266 204.91577148 C101.26669325 213.26674655 105.14440875 221.62798306 109 230 C103.01055851 230.11200727 97.39890701 229.83341371 91.5 228.8125 C90.33887695 228.6117688 90.33887695 228.6117688 89.15429688 228.40698242 C63.26831891 223.68873197 39.75905534 212.39753435 20 195 C19.07574219 194.20851563 18.15148438 193.41703125 17.19921875 192.6015625 C10.7214984 186.92123788 5.20277353 180.86090937 0 174 C-0.59296875 173.22269531 -1.1859375 172.44539062 -1.796875 171.64453125 C-11.40116392 158.49370445 -17.96138153 144.42906683 -23 129 C-23.21527344 128.34193359 -23.43054688 127.68386719 -23.65234375 127.00585938 C-27.79999892 114.06138001 -29.37515611 101.37891022 -29.3125 87.8125 C-29.30758545 86.5430957 -29.3026709 85.27369141 -29.29760742 83.96582031 C-29.1744494 74.0399151 -28.3611864 64.63996181 -26 55 C-25.75056641 53.95875977 -25.75056641 53.95875977 -25.49609375 52.89648438 C-21.11141038 35.17911563 -13.13562401 13.13562401 0 0 Z " fill="#010101" transform="translate(41,66)"/>
<path d="M0 0 C0.78632813 0.20399414 1.57265625 0.40798828 2.3828125 0.61816406 C23.9871762 6.36204869 43.55148982 15.18734952 60.578125 29.91796875 C62.95680744 32.02098035 62.95680744 32.02098035 65.484375 33.80078125 C70.73215282 37.73661461 70.73215282 37.73661461 71.44140625 41.08203125 C70.81860932 51.85830538 63.58034847 60.94982471 56 68 C34.07789844 85.90106391 3.1245448 95.20895244 -25 94 C-23.13061309 87.12014751 -20.73526359 80.78466483 -17.625 74.375 C-17.25117188 73.5809375 -16.87734375 72.786875 -16.4921875 71.96875 C-13.99232272 66.74642973 -11.17371149 61.84128302 -8 57 C-7.52062988 57.4122583 -7.04125977 57.8245166 -6.54736328 58.24926758 C-5.9954834 58.72388428 -5.44360352 59.19850098 -4.875 59.6875 C-4.29492188 60.18636719 -3.71484375 60.68523437 -3.1171875 61.19921875 C-1.37543566 62.68067188 0.37508903 64.14958246 2.13232422 65.61254883 C3.07865723 66.40040771 4.02499023 67.1882666 5 68 C5.53741821 66.19813232 5.53741821 66.19813232 6.08569336 64.35986328 C7.41261631 59.91269388 8.74194985 55.46624813 10.07202148 51.02001953 C10.64787766 49.09378468 11.22307564 47.16735294 11.79760742 45.24072266 C12.62246429 42.47506795 13.44966821 39.71012477 14.27734375 36.9453125 C14.53466782 36.0806839 14.79199188 35.2160553 15.05711365 34.32522583 C15.41737389 33.12420731 15.41737389 33.12420731 15.78491211 31.89892578 C15.99587021 31.1927713 16.20682831 30.48661682 16.42417908 29.75906372 C17 28 17 28 18 26 C17.25016846 26.19634033 16.50033691 26.39268066 15.7277832 26.5949707 C12.25652075 27.50273264 8.78451667 28.40762728 5.3125 29.3125 C4.13365234 29.62123047 2.95480469 29.92996094 1.74023438 30.24804688 C-20.359375 36 -20.359375 36 -26 36 C-21.42843664 41.32445686 -21.42843664 41.32445686 -16.5625 46.375 C-15 48 -15 48 -15 50 C-14.34 50 -13.68 50 -13 50 C-14.47298068 54.02465933 -16.42297384 57.51599422 -18.625 61.1875 C-23.4811159 69.46525111 -27.24459685 78.18250761 -31 87 C-31.57658448 88.34515431 -32.15338962 89.69021407 -32.73046875 91.03515625 C-33.14941406 92.01355469 -33.56835938 92.99195312 -34 94 C-62.34158831 95.71960199 -95.53306202 85.47589873 -117 67 C-122.83305194 61.47752653 -127.21815495 55.57026685 -130 48 C-130.33515625 47.1234375 -130.6703125 46.246875 -131.015625 45.34375 C-131.82405827 42.07241539 -131.93961495 40.25525367 -131 37 C-126.93003618 32.17981244 -122.11895169 28.64063908 -117 25 C-116.39494629 24.55237305 -115.78989258 24.10474609 -115.16650391 23.64355469 C-83.0534947 -0.05405861 -38.94580713 -10.26719821 0 0 Z " fill="#010101" transform="translate(186,13)"/>
<path d="M0 0 C3.75012786 3.34287416 5.98183532 7.03042989 8.375 11.375 C8.96535034 12.44391479 8.96535034 12.44391479 9.56762695 13.53442383 C15.01475635 23.55219706 19.05831215 33.63669467 22.25 44.5625 C22.49645264 45.40063232 22.74290527 46.23876465 22.99682617 47.10229492 C26.19452364 58.5412756 27.37032605 69.83150758 27.3125 81.6875 C27.30686035 82.91210938 27.3012207 84.13671875 27.29541016 85.3984375 C26.84620116 119.16472146 14.310739 151.66082735 -8 177 C-8.79148437 177.92425781 -9.58296875 178.84851563 -10.3984375 179.80078125 C-16.07876212 186.2785016 -22.13909063 191.79722647 -29 197 C-29.77730469 197.59296875 -30.55460937 198.1859375 -31.35546875 198.796875 C-42.57683581 206.99204425 -54.82539194 213.58796673 -68 218 C-68.63437988 218.21640137 -69.26875977 218.43280273 -69.92236328 218.65576172 C-81.10717384 222.44534324 -92.07664042 225.45859075 -104 225 C-103.35792858 220.4865838 -101.60602489 216.68422188 -99.640625 212.62109375 C-99.30011612 211.90539719 -98.95960724 211.18970062 -98.60877991 210.45231628 C-97.87602801 208.91368531 -97.14076027 207.37625042 -96.40322876 205.83990479 C-94.84019527 202.58379526 -93.28931172 199.32194998 -91.73774719 196.06036377 C-90.95018833 194.40508069 -90.16200844 192.75009294 -89.37321472 191.09539795 C-85.97314316 183.95986802 -82.63057863 176.79906925 -79.3125 169.625 C-78.26702877 167.36714041 -77.22145575 165.10932796 -76.17578125 162.8515625 C-75.65838379 161.73426758 -75.14098633 160.61697266 -74.60791016 159.46582031 C-71.74984123 153.30530611 -68.87425236 147.15297574 -66 141 C-61.48776582 131.3389857 -56.98706503 121.67273954 -52.5 112 C-46.27610642 98.58436668 -40.02388266 85.18207871 -33.76611328 71.78222656 C-31.42487803 66.76868862 -29.08509249 61.75447437 -26.74536133 56.74023438 C-25.58787523 54.25965879 -24.43014989 51.77919508 -23.2722168 49.29882812 C-20.55170256 43.4709294 -17.83274168 37.64231977 -15.11883545 31.81134033 C-13.84476403 29.07415828 -12.56987338 26.33735815 -11.29492188 23.60058594 C-10.69067222 22.30292452 -10.08681861 21.00507859 -9.48339844 19.70703125 C-6.40823021 13.09212598 -3.3075685 6.50219564 0 0 Z " fill="#010101" transform="translate(271,70)"/>
<path d="M0 0 C0.495 0.99 0.495 0.99 1 2 C-0.16789681 4.81146146 -1.40545667 7.51141827 -2.7421875 10.2421875 C-3.14398224 11.07976593 -3.54577698 11.91734436 -3.95974731 12.78030396 C-5.25740466 15.48218592 -6.56566045 18.17876253 -7.875 20.875 C-9.56357301 24.37063102 -11.24753043 27.86846504 -12.9296875 31.3671875 C-13.34987656 32.23940948 -13.77006561 33.11163147 -14.20298767 34.01028442 C-17.57051889 41.02992583 -20.79539278 48.10792591 -23.9468689 55.22702026 C-26.22224693 60.35131674 -28.63865768 65.38129541 -31.1875 70.375 C-33.63568523 75.18962249 -35.9118383 80.01317717 -38 85 C-40.08797212 89.98637008 -42.35942368 94.81294448 -44.8125 99.625 C-47.72434418 105.35077648 -50.45516159 111.12941932 -53.0625 117 C-57.39885806 126.76142292 -61.92981482 136.42636656 -66.48400879 146.08743286 C-70.91059434 155.47976771 -75.27348655 164.89251427 -79.38671875 174.42773438 C-81.78583292 179.89291646 -81.78583292 179.89291646 -84 181 C-88.43197691 168.26405443 -92.39497894 155.57111729 -94.9375 142.3125 C-95.13625732 141.28850098 -95.33501465 140.26450195 -95.53979492 139.20947266 C-98.02047509 125.52774528 -98.23641135 111.73789643 -98.25 97.875 C-98.25133942 97.06117859 -98.25267883 96.24735718 -98.25405884 95.40887451 C-98.249906 83.74568696 -97.79754736 72.44936578 -95.41015625 60.99365234 C-95.01079283 59.05246085 -94.67630255 57.09827748 -94.34375 55.14453125 C-92.51185805 44.79652253 -89.31128997 34.95530222 -86 25 C-85.18136475 24.94054199 -84.36272949 24.88108398 -83.51928711 24.81982422 C-54.08981806 22.58529976 -24.50180857 17.84557954 0 0 Z " fill="#010101" transform="translate(243,92)"/>
<path d="M0 0 C3.52689691 1.29763188 6.73847352 2.92095202 10.0090332 4.76660156 C30.40710047 16.19998115 53.09143195 19.34091508 76 22 C75.44564984 26.59927881 74.55028901 30.93166319 73.33666992 35.3996582 C64.30136995 68.98215902 63.30835779 103.73588539 69 138 C69.21813931 139.44481878 69.43321723 140.89010471 69.64453125 142.3359375 C70.07318613 145.22858698 70.52110361 148.11535352 71 151 C68.37452797 147.79255077 66.74047889 144.50706382 65.05859375 140.7265625 C64.77911392 140.10365326 64.49963409 139.48074402 64.21168518 138.83895874 C63.60361512 137.48351663 62.99756756 136.12716579 62.39331055 134.77001953 C60.73189587 131.04149097 59.05246932 127.32112441 57.37109375 123.6015625 C57.01727631 122.81871887 56.66345886 122.03587524 56.29891968 121.22930908 C52.31013867 112.43356999 48.15689678 103.71718579 44 95 C38.09485454 82.60748082 32.31165084 70.17043312 26.67474365 57.65374756 C20.34391675 43.60940955 13.73123099 29.70227832 7.08032227 15.80712891 C6.68292343 14.97556274 6.2855246 14.14399658 5.87608337 13.28723145 C5.12811122 11.72272013 4.37856989 10.15895773 3.62721252 8.59606934 C2.26888264 5.75520507 0.9969202 2.9907606 0 0 Z " fill="#020202" transform="translate(72,95)"/>
</svg>
