<?xml version="1.0" encoding="UTF-8"?>
<svg version="1.1" xmlns="http://www.w3.org/2000/svg" width="1024" height="1024">
<path d="M0 0 C337.92 0 675.84 0 1024 0 C1024 337.92 1024 675.84 1024 1024 C686.08 1024 348.16 1024 0 1024 C0 686.08 0 348.16 0 0 Z " fill="#000000" transform="translate(0,0)"/>
<path d="M0 0 C337.92 0 675.84 0 1024 0 C1024 337.92 1024 675.84 1024 1024 C686.08 1024 348.16 1024 0 1024 C0 686.08 0 348.16 0 0 Z M439.6875 68.5625 C438.94495972 68.68871735 438.20241943 68.81493469 437.43737793 68.94497681 C358.09104689 82.55152684 283.15577176 117.33728536 223.51171875 171.734375 C222.13903049 172.9725697 220.75997206 174.20432071 219.35229492 175.40258789 C213.46465727 180.43599749 207.98937742 185.85831124 202.52709961 191.3425293 C200.94040054 192.93458966 199.34842258 194.5212299 197.75585938 196.10742188 C192.29369697 201.56574928 186.99175053 207.1034055 182 213 C181.14277344 213.97582031 180.28554687 214.95164063 179.40234375 215.95703125 C160.46144989 237.89965155 144.16841776 262.35579623 130.24169922 287.74267578 C129.15825305 289.71230678 128.05494419 291.6683998 126.94140625 293.62109375 C114.89844335 315.2783971 105.76761473 338.52109926 98 362 C97.50161621 363.50336914 97.50161621 363.50336914 96.99316406 365.03710938 C90.33959998 385.37236256 85.61293412 406.06872081 82.25 427.1875 C82.05132324 428.41976318 81.85264648 429.65202637 81.64794922 430.92163086 C78.50426564 451.58993611 77.62171591 472.1772238 77.6875 493.0625 C77.68932281 494.26955597 77.69114563 495.47661194 77.69302368 496.72024536 C77.73945231 515.01690437 78.36143149 532.87451437 81 551 C81.27180035 552.99394518 81.54359942 554.98789054 81.81535339 556.98184204 C89.84244773 615.22695549 110.50557427 673.79626776 143 723 C143.95472565 724.4698582 144.90914003 725.93991861 145.86328125 727.41015625 C167.47140638 760.47344619 194.03285828 794.64175061 225.39453125 818.953125 C227.9522339 820.96247461 230.3818442 823.06831566 232.81958008 825.21923828 C298.17116273 882.6158517 386.61740234 919.11475418 473 926 C473.98105713 926.08467529 474.96211426 926.16935059 475.97290039 926.2565918 C581.86638285 934.46716804 686.31324151 904.35408836 790 826 C790.55961426 825.53062012 791.11922852 825.06124023 791.69580078 824.57763672 C798.05092129 819.23851171 804.31374409 813.90424133 810.07763672 807.91967773 C811.90013158 806.0997289 813.78183528 804.4338723 815.74609375 802.76953125 C819.99263426 799.07848045 823.85811125 795.11756065 827.6875 791 C828.37884033 790.25943359 829.07018066 789.51886719 829.7824707 788.75585938 C841.27514957 776.37933155 851.93540275 763.5632286 862 750 C862.54156738 749.27409668 863.08313477 748.54819336 863.64111328 747.80029297 C920.09785197 671.89305921 948.49756283 577.1888684 942.25 434.9375 C935.925429 392.47848708 923.73780179 352.07639952 906 313 C905.6508252 312.22188965 905.30165039 311.4437793 904.94189453 310.64208984 C893.6132256 285.45805521 879.24789265 261.4107171 862.26220703 239.64306641 C860.43864703 237.26926393 858.72423579 234.82150294 857 232.375 C852.08324189 225.56954984 846.52494108 219.31163153 841 213 C840.33742188 212.23558594 839.67484375 211.47117188 838.9921875 210.68359375 C837.33837911 208.77979107 835.67003463 206.8895697 834 205 C833.40960937 204.31679687 832.81921875 203.63359375 832.2109375 202.9296875 C827.00670828 197.00209051 821.50458992 191.39829616 815.9375 185.8125 C815.18170654 185.05211426 814.42591309 184.29172852 813.6472168 183.50830078 C808.92603202 178.79995228 804.0594402 174.34037935 799 170 C797.95180276 169.0744119 796.90485077 168.14741096 795.859375 167.21875 C723.91228911 104.00125924 624.39903927 63.92400066 528.38671875 63.83203125 C527.13405716 63.82870285 525.88139557 63.82537445 524.59077454 63.82194519 C521.95464439 63.81691802 519.31850798 63.81453555 516.68237305 63.81469727 C512.73540197 63.81252635 508.78871816 63.79436739 504.84179688 63.77539062 C482.93285047 63.72499839 461.29530537 64.82259097 439.6875 68.5625 Z " fill="#000000" transform="translate(0,0)"/>
<path d="M0 0 C3.89338604 0.01077144 7.78631481 0.00000259 11.6796875 -0.01269531 C26.11672535 -0.02069757 40.30012506 0.51588348 54.6328125 2.26074219 C55.52406326 2.36550873 56.41531403 2.47027527 57.33357239 2.57821655 C118.3224377 9.77000154 178.31157886 30.00444766 230.6328125 62.26074219 C231.49165039 62.78684082 232.35048828 63.31293945 233.23535156 63.85498047 C245.93230325 71.66484613 257.98033026 79.96842326 269.6328125 89.26074219 C271.00759766 90.33388672 271.00759766 90.33388672 272.41015625 91.42871094 C287.59424904 103.36434303 301.82796781 116.39315272 315.5078125 130.01074219 C316.20946533 130.70772217 316.91111816 131.40470215 317.6340332 132.12280273 C322.16988598 136.6726767 326.45847548 141.3783949 330.6328125 146.26074219 C331.10009766 146.80102051 331.56738281 147.34129883 332.04882812 147.89794922 C352.6624331 171.76192692 370.17898085 197.80500789 385.6328125 225.26074219 C385.98408203 225.87530273 386.33535156 226.48986328 386.69726562 227.12304688 C416.06628969 278.65021136 431.36275824 338.55716237 436.6328125 397.26074219 C436.70628906 398.07784668 436.77976562 398.89495117 436.85546875 399.73681641 C437.29181679 404.90916542 437.5103343 410.07203388 437.6328125 415.26074219 C437.66004395 416.3411377 437.68727539 417.4215332 437.71533203 418.53466797 C439.63760864 508.56733386 414.68171513 598.28713907 339.15234375 704.33886719 C336.70244907 707.17998536 334.35067905 710.08114741 332.0078125 713.01074219 C328.56339372 717.24860744 324.91513628 721.12495758 320.96875 724.89746094 C319.00269806 726.88652686 317.19582541 728.91206983 315.37890625 731.03417969 C311.61195136 735.37566077 307.53348575 739.29440618 303.3203125 743.19824219 C302.56903076 743.89844482 301.81774902 744.59864746 301.04370117 745.32006836 C298.9105826 747.30448782 296.77202586 749.28289877 294.6328125 751.26074219 C293.22902344 752.57171875 293.22902344 752.57171875 291.796875 753.90917969 C285.59421971 759.6172711 279.01460979 764.79033862 272.34277344 769.93164062 C270.81368059 771.12015882 269.30388247 772.33340472 267.796875 773.54980469 C210.3988315 819.31098457 139.94754345 848.2203999 67.6328125 859.26074219 C66.36775879 859.45684082 65.10270508 859.65293945 63.79931641 859.85498047 C44.20258264 862.81118388 24.75321283 863.63200091 4.9453125 863.63574219 C3.86968048 863.63764557 2.79404846 863.63954895 1.68582153 863.64151001 C-19.40779594 863.63727681 -40.41080051 862.42701764 -61.2421875 859.01074219 C-61.90286224 858.90436432 -62.56353699 858.79798645 -63.24423218 858.68838501 C-140.81879321 846.15611046 -214.33666329 813.20652831 -274.3671875 762.26074219 C-275.41086119 761.39023409 -276.45516303 760.5204787 -277.5 759.65136719 C-294.83742045 745.18200423 -312.51147481 729.68396651 -326.390625 711.79589844 C-328.24924234 709.41201968 -330.19492375 707.12721513 -332.17919922 704.84765625 C-383.31301987 645.85407545 -414.74815082 570.6730298 -426.4921875 493.94824219 C-426.65090332 492.93084961 -426.80961914 491.91345703 -426.97314453 490.86523438 C-429.93853569 470.71554175 -430.74388495 450.6065849 -430.6796875 430.26074219 C-430.67786469 429.05629456 -430.67604187 427.85184692 -430.67416382 426.61090088 C-430.62682171 407.98710204 -430.06831927 389.71404498 -427.3671875 371.26074219 C-427.20089844 370.08688965 -427.03460938 368.91303711 -426.86328125 367.70361328 C-420.99918104 327.46394047 -408.92390899 289.32349488 -392.3671875 252.26074219 C-392.02123535 251.47248047 -391.6752832 250.68421875 -391.31884766 249.87207031 C-385.58339149 236.83720692 -378.51721126 224.5620799 -371.3671875 212.26074219 C-370.94260254 211.5251709 -370.51801758 210.78959961 -370.08056641 210.03173828 C-351.18523476 177.37558972 -326.67090603 148.52433385 -300.1171875 121.88574219 C-299.64542084 121.41129669 -299.17365417 120.9368512 -298.68759155 120.44802856 C-293.09070764 114.8270511 -287.41031921 109.39857984 -281.3671875 104.26074219 C-280.40296875 103.41511719 -279.43875 102.56949219 -278.4453125 101.69824219 C-218.53313186 50.06122462 -144.32733495 17.35498431 -66.5546875 4.44824219 C-65.40226562 4.25343262 -64.24984375 4.05862305 -63.0625 3.85791016 C-42.15186539 0.57253221 -21.13345838 -0.06937751 0 0 Z M-291.9909668 141.75415039 C-293.5599111 143.32848373 -295.13417308 144.89735808 -296.70898438 146.46582031 C-302.13796757 151.89053174 -307.42545733 157.38297831 -312.3671875 163.26074219 C-312.90657959 163.89343018 -313.44597168 164.52611816 -314.00170898 165.17797852 C-327.42325411 180.99587447 -339.35529282 197.69134914 -350.3671875 215.26074219 C-350.73730957 215.84259277 -351.10743164 216.42444336 -351.48876953 217.02392578 C-380.14027426 262.178488 -398.30871349 313.57155629 -406.85400391 366.17431641 C-407.17188662 368.08614956 -407.50898687 369.99502637 -407.87646484 371.89794922 C-411.42640667 390.82752239 -411.77592524 410.30759435 -411.7421875 429.51074219 C-411.74230835 430.58459167 -411.7424292 431.65844116 -411.74255371 432.76483154 C-411.71120728 452.50761798 -410.23362073 471.74340304 -407.3671875 491.26074219 C-407.21765625 492.35805664 -407.068125 493.45537109 -406.9140625 494.5859375 C-401.84134084 531.72718431 -390.37660939 568.41192136 -374.3671875 602.26074219 C-373.88024414 603.29360352 -373.39330078 604.32646484 -372.89160156 605.390625 C-356.29728878 640.26485585 -334.81658849 673.09660408 -308.73608398 701.65698242 C-306.54089841 704.06980877 -304.37133676 706.5033939 -302.203125 708.94042969 C-297.44974555 714.22223399 -292.51830555 719.30148835 -287.4921875 724.32324219 C-286.61522217 725.20012695 -285.73825684 726.07701172 -284.8347168 726.98046875 C-279.74359193 732.02678983 -274.65117733 736.8600074 -268.94921875 741.21386719 C-266.59445046 743.08058214 -264.38531321 745.02858217 -262.15625 747.04199219 C-257.59280217 751.12242848 -252.83934637 754.85808902 -247.9296875 758.51074219 C-247.06424316 759.15624023 -246.19879883 759.80173828 -245.30712891 760.46679688 C-211.36740091 785.57662663 -174.24086902 806.29497319 -134.3671875 820.26074219 C-133.05403564 820.72988037 -133.05403564 820.72988037 -131.71435547 821.20849609 C-116.84827363 826.50469664 -101.70090214 830.55640765 -86.3671875 834.26074219 C-85.08013916 834.57205078 -85.08013916 834.57205078 -83.76708984 834.88964844 C-43.01823311 844.54713592 1.39307341 847.75209736 43.0546875 842.57714844 C45.8488718 842.23422582 48.6460331 841.93408644 51.4453125 841.63574219 C112.22918606 834.91151387 172.06804998 812.97786576 223.6328125 780.26074219 C225.24929688 779.2359375 225.24929688 779.2359375 226.8984375 778.19042969 C229.84854533 776.26399316 232.74663652 774.28179237 235.6328125 772.26074219 C236.28926758 771.80119141 236.94572266 771.34164062 237.62207031 770.86816406 C251.4366684 761.15390245 264.79871472 750.91007858 277.2265625 739.45605469 C278.55320922 738.24570492 279.88779737 737.04326977 281.25415039 735.87792969 C287.25301702 730.74960278 292.84659928 725.23308835 298.4230957 719.65576172 C300.05857132 718.02246771 301.70188958 716.39735749 303.34570312 714.77246094 C309.90777927 708.24494645 315.87193942 701.51390311 321.6328125 694.26074219 C322.55589328 693.1706621 323.48551903 692.08603735 324.42578125 691.01074219 C342.10438499 670.7077454 356.82394591 648.04905766 369.5078125 624.34179688 C370.57665469 622.36462438 371.67704515 620.40918735 372.7890625 618.45605469 C394.97753586 578.90794883 408.09531821 533.16596864 414.31585693 488.51818848 C414.54289349 486.90117054 414.7769815 485.28513654 415.01568604 483.6697998 C417.41769352 467.20531856 418.10360861 450.99784474 418.02392578 434.36865234 C418.00785454 430.39613376 418.0238726 426.42463639 418.04296875 422.45214844 C418.05702553 405.53641769 416.95673922 389.01505824 414.6328125 372.26074219 C414.53057373 371.51431458 414.42833496 370.76788696 414.32299805 369.99884033 C413.78380818 366.15192804 413.15115015 362.33035 412.4453125 358.51074219 C412.23664551 357.37411133 412.02797852 356.23748047 411.81298828 355.06640625 C405.28981876 320.86283501 394.56550427 287.71503817 379.6328125 256.26074219 C379.15199219 255.24544434 378.67117188 254.23014648 378.17578125 253.18408203 C371.42959445 239.06203467 364.01166191 225.47940252 355.6328125 212.26074219 C355.21322266 211.59816406 354.79363281 210.93558594 354.36132812 210.25292969 C342.78940455 192.14035365 329.77156292 174.84864879 315.1875 159.06152344 C313.25074788 156.93820345 311.37058656 154.792347 309.5 152.61230469 C305.2990338 147.79881563 300.82639544 143.26824844 296.30957031 138.75219727 C294.89361303 137.33405935 293.48582961 135.90777554 292.078125 134.48144531 C286.63893202 129.03088912 281.04900803 123.97057793 275.02197266 119.17626953 C272.87056385 117.45136114 270.80417869 115.67044517 268.7578125 113.82324219 C263.28461696 109.00240733 257.48022205 104.61259112 251.6328125 100.26074219 C251.02356934 99.80570312 250.41432617 99.35066406 249.78662109 98.88183594 C186.80961636 52.20571785 112.88491142 28.57675156 35.6328125 21.26074219 C34.59519775 21.15544189 33.55758301 21.0501416 32.48852539 20.94165039 C24.14756627 20.15025467 15.81679929 20.05973718 7.4453125 20.07324219 C6.68881409 20.07417877 5.93231567 20.07511536 5.15289307 20.07608032 C-86.75681798 20.31941798 -176.64281986 47.89581305 -291.9909668 141.75415039 Z " fill="#FCFCFC" transform="translate(508.3671875,63.7392578125)"/>
<path d="M0 0 C1.48322536 2.96645073 0.21136672 4.96087464 -0.77941895 7.96035767 C-1.06353638 8.79473358 -1.34765381 9.6291095 -1.64038086 10.48876953 C-2.07907249 11.80593964 -2.07907249 11.80593964 -2.52662659 13.14971924 C-3.49894341 16.06317526 -4.48185128 18.97294281 -5.46484375 21.8828125 C-6.13953268 23.89755797 -6.81356135 25.91252467 -7.48695374 27.92770386 C-9.26409536 33.24000616 -11.05022438 38.5492447 -12.8381958 43.85791016 C-14.65990264 49.2719529 -16.47315702 54.68882407 -18.28710938 60.10546875 C-21.84977205 70.73977603 -25.42192877 81.37086813 -29 92 C-51.45572242 69.63283273 -51.45572242 69.63283273 -54 62 C-92.35997639 93.21556818 -117.11756156 146.08275178 -122.22631836 194.51831055 C-123.5606833 208.84804387 -123.33242257 222.62788221 -121.8125 236.9375 C-121.71179199 237.92427734 -121.61108398 238.91105469 -121.50732422 239.92773438 C-119.42119848 257.3916672 -114.21344414 274.27758609 -108.6640625 290.90234375 C-108.05144162 292.75858237 -107.43944909 294.61502847 -106.82803345 296.47166443 C-104.89856778 302.31886933 -102.95028509 308.15971295 -101 314 C-100.35762567 315.92732081 -99.71533193 317.85466849 -99.07312012 319.78204346 C-95.19156992 331.42354141 -91.28219858 343.05554259 -87.35839844 354.68286133 C-85.69727221 359.60524368 -84.04041963 364.52905288 -82.3845911 369.45321941 C-75.70752456 389.30361756 -68.98226339 409.13243376 -61.93991089 428.85670471 C-57.67186458 440.82089644 -53.67356552 452.86640818 -49.74926758 464.94750977 C-49.17667527 466.96390869 -49.17667527 466.96390869 -48 468 C-47.6690332 467.50822266 -47.33806641 467.01644531 -46.99707031 466.50976562 C-41.12948411 457.81136185 -35.23036714 449.16382831 -28.875 440.8125 C-24.47528237 435.03001397 -20.29087791 429.14061766 -16.20776367 423.13110352 C-12.78568531 418.10730491 -9.2615461 413.16666014 -5.6875 408.25 C-1.05772455 401.87897695 3.49789571 395.46187315 8 389 C12.50210744 382.53812232 17.05792752 376.12117355 21.6875 369.75 C26.17125024 363.57812317 30.54151841 357.34234851 34.83666992 351.03808594 C38.30690852 345.96286982 41.88501845 340.97292033 45.5 336 C50.06518291 329.71792739 54.52917133 323.37937599 58.90844727 316.96655273 C63.6900448 309.97021127 68.58500252 303.05561039 73.48388672 296.14111328 C75.99343923 292.59702704 78.49640218 289.0482939 81 285.5 C81.99996804 284.08331078 82.99996805 282.66664412 84 281.25 C84.495 280.54875 84.99 279.8475 85.5 279.125 C87 277 88.5 274.875 90 272.75 C90.49491943 272.04883057 90.98983887 271.34766113 91.49975586 270.62524414 C92.50044188 269.20767346 93.50125583 267.79019308 94.50219727 266.37280273 C96.99275451 262.84569428 99.48111592 259.31707783 101.96484375 255.78515625 C107.11535296 248.4663682 112.3058148 241.18047511 117.5625 233.9375 C122.0877046 227.70038114 126.50218393 221.40036378 130.84057617 215.03222656 C134.26709058 210.02058646 137.80244866 205.09583791 141.375 200.1875 C146.3907592 193.28962556 151.25572929 186.3031123 156.05200195 179.2512207 C165.70192062 165.07089174 175.63089657 151.08204844 185.53222656 137.07666016 C188.02320986 133.55232484 190.51144903 130.02605299 193 126.5 C193.99998722 125.08332432 194.99998722 123.66665764 196 122.25 C196.7425 121.198125 196.7425 121.198125 197.5 120.125 C203 112.33333333 208.5 104.54166667 214 96.75 C214.49491943 96.04883057 214.98983887 95.34766113 215.49975586 94.62524414 C216.50044188 93.20767346 217.50125583 91.79019308 218.50219727 90.37280273 C220.99275451 86.84569428 223.48111592 83.31707783 225.96484375 79.78515625 C228.44459938 76.25987762 230.93325542 72.74101032 233.42626953 69.22509766 C234.51896313 67.68013807 235.60824207 66.13276 236.69482422 64.58349609 C238.41391653 62.13351196 240.14353424 59.69124991 241.875 57.25 C242.39827881 56.49920166 242.92155762 55.74840332 243.46069336 54.97485352 C250.8816333 44.57276123 250.8816333 44.57276123 257.0625 43.4375 C260.82662066 44.15828906 262.43724531 45.14435905 265 48 C266.16755391 51.30806941 266.50726925 53.56273713 265.3203125 56.92578125 C262.38418481 62.61586813 258.38694209 67.67490141 254.56884766 72.79370117 C250.78337519 77.87735262 247.17947616 83.06526338 243.625 88.3125 C239.34847271 94.61695349 234.98659485 100.84326717 230.5 107 C226.05835414 113.09641594 221.73556002 119.25865795 217.5 125.5 C212.74720757 132.50351384 207.858725 139.38982699 202.875 146.23046875 C198.98476061 151.58889945 195.21830961 157.02112078 191.5 162.5 C186.7635939 169.47633889 181.90196933 176.34491155 176.94311523 183.16455078 C171.11643857 191.18877176 165.44521129 199.31947386 159.77490234 207.45458984 C156.81304139 211.70223253 153.84427369 215.94503712 150.875 220.1875 C150.29387451 221.01789795 149.71274902 221.8482959 149.11401367 222.70385742 C142.94895224 231.50873878 136.74642807 240.28701305 130.54101562 249.06347656 C124.67444305 257.36205286 118.82426018 265.67165861 113 274 C107.17876317 282.32401819 101.331458 290.62918349 95.46777344 298.92333984 C92.97679014 302.44767516 90.48855097 305.97394701 88 309.5 C87.00001278 310.91667568 86.00001278 312.33334236 85 313.75 C84.505 314.45125 84.01 315.1525 83.5 315.875 C82 318 80.5 320.125 79 322.25 C78.50516113 322.95108887 78.01032227 323.65217773 77.50048828 324.37451172 C76.49911619 325.7929864 75.49748802 327.21128034 74.49560547 328.62939453 C72.01448059 332.14197113 69.53769684 335.65744278 67.0703125 339.1796875 C61.82869436 346.65128083 56.50566017 354.04870741 51.0625 361.375 C45.74006754 368.54466412 40.62814883 375.83258176 35.61572266 383.22167969 C31.66776007 389.04036544 27.62428942 394.77961153 23.51953125 400.48828125 C20.69764009 404.41298045 17.91045122 408.36188979 15.125 412.3125 C14.36968994 413.38310669 14.36968994 413.38310669 13.59912109 414.4753418 C11.07269612 418.05732789 8.54882007 421.64109139 6.02734375 425.2265625 C0.9221342 432.47991629 -4.22316846 439.69962978 -9.4375 446.875 C-14.00142856 453.15948438 -18.44403837 459.51568352 -22.8125 465.9375 C-36.19162826 485.59581413 -36.19162826 485.59581413 -39 487 C-39.33 487.99 -39.66 488.98 -40 490 C-39.09024414 490.39239868 -39.09024414 490.39239868 -38.16210938 490.79272461 C-35.83186292 492.09388413 -34.89670419 493.13433629 -33.40625 495.31640625 C-32.93977051 495.98905518 -32.47329102 496.6617041 -31.99267578 497.35473633 C-31.50009277 498.08329834 -31.00750977 498.81186035 -30.5 499.5625 C-29.42471897 501.11995725 -28.34919148 502.67724438 -27.2734375 504.234375 C-26.7278418 505.03037109 -26.18224609 505.82636719 -25.62011719 506.64648438 C-23.1559511 510.22613494 -20.63918977 513.76790459 -18.125 517.3125 C-13.18650525 524.302619 -8.27141977 531.30904995 -3.36962891 538.32495117 C-0.32758502 542.67882923 2.72257668 547.02657416 5.7890625 551.36328125 C6.41055176 552.24459717 7.03204102 553.12591309 7.67236328 554.03393555 C8.84763376 555.70013186 10.0254847 557.36451259 11.20654297 559.02661133 C21.57578931 573.75168334 21.57578931 573.75168334 22.625 579.3125 C21.83231872 582.72102952 20.42159145 584.50718527 18 587 C15.09704195 588.45147903 13.22738221 588.37239025 10 588 C4.66088026 584.25596997 1.47551807 579.72458688 -2.0625 574.3125 C-3.20890208 572.59759592 -4.35739278 570.8840865 -5.5078125 569.171875 C-6.08821289 568.30626953 -6.66861328 567.44066406 -7.26660156 566.54882812 C-9.91033326 562.66142547 -12.66698243 558.86010737 -15.4375 555.0625 C-20.04383886 548.73157241 -24.5806563 542.35720519 -29.0625 535.9375 C-29.6409668 535.10943848 -30.21943359 534.28137695 -30.81542969 533.42822266 C-33.12312795 530.12345881 -35.42961996 526.81785501 -37.73535156 523.51171875 C-39.38312619 521.15157097 -41.03485665 518.79424013 -42.6875 516.4375 C-43.18064697 515.72907959 -43.67379395 515.02065918 -44.18188477 514.29077148 C-44.87109009 513.30959351 -44.87109009 513.30959351 -45.57421875 512.30859375 C-45.97213623 511.73939209 -46.37005371 511.17019043 -46.7800293 510.58374023 C-48.06983365 508.90934343 -49.47596401 507.46167276 -51 506 C-57.6271264 514.73041652 -64.1354898 523.52386972 -70.42675781 532.49975586 C-74.07323768 537.69947545 -77.77202075 542.85843754 -81.5 548 C-85.75184206 553.86598487 -89.9586007 559.76055492 -94.125 565.6875 C-95.59318841 567.76571888 -97.06264961 569.84303025 -98.53271484 571.91992188 C-99.52916059 573.3325205 -100.52153934 574.74799499 -101.51025391 576.16601562 C-102.97508748 578.26445725 -104.45465632 580.3517613 -105.9375 582.4375 C-106.37400879 583.07067139 -106.81051758 583.70384277 -107.26025391 584.35620117 C-109.80103654 587.89518338 -111.71308226 589.95610769 -116 591 C-120.23323429 590.92573273 -122.25804894 590.66585351 -125.4375 587.8125 C-127.28948381 584.47892914 -127.31638313 582.76826474 -127 579 C-122.96344848 569.97087159 -115.48926384 561.80346188 -109.6171875 553.90234375 C-106.32410702 549.45956153 -103.11253357 544.96515725 -99.9375 540.4375 C-94.25788742 532.34358035 -88.47848633 524.32518135 -82.67626953 516.31884766 C-80.93348304 513.90798455 -79.19833642 511.49177173 -77.46484375 509.07421875 C-76.88468506 508.26654053 -76.30452637 507.4588623 -75.70678711 506.62670898 C-74.60301205 505.08969708 -73.50084987 503.55152507 -72.40063477 502.01196289 C-69.41891236 497.86598978 -66.43056061 493.78791068 -63 490 C-62.34 490 -61.68 490 -61 490 C-63.38149545 485.84021684 -66.13615029 482.02143655 -69 478.1875 C-73.29552644 472.3813884 -77.45540339 466.50087212 -81.52807617 460.53686523 C-85.59175532 454.58609871 -89.69575606 448.66417482 -93.8125 442.75 C-94.49513916 441.76926514 -95.17777832 440.78853027 -95.88110352 439.77807617 C-102.00004532 430.99225523 -108.13778985 422.21966268 -114.28222656 413.45166016 C-117.1896209 409.30213572 -120.09468001 405.15097694 -123 401 C-124.16665575 399.33332569 -125.33332241 397.66665902 -126.5 396 C-133.5 386 -140.5 376 -147.5 366 C-148.07733887 365.1752417 -148.65467773 364.3504834 -149.24951172 363.50073242 C-150.41784967 361.83165493 -151.58614384 360.16254678 -152.75439453 358.4934082 C-155.64513489 354.36337662 -158.53659854 350.23385554 -161.4296875 346.10546875 C-170.99923228 332.44731624 -180.52300416 318.75757248 -190.04101562 305.06347656 C-197.58088034 294.21633658 -205.13012378 283.37608728 -212.71142578 272.55786133 C-217.15467824 266.21475708 -221.57983743 259.85921113 -226 253.5 C-234.50218851 241.26904992 -243.04357895 229.06579374 -251.59765625 216.87109375 C-257.3284053 208.69785779 -263.03901443 200.51263312 -268.68310547 192.27929688 C-278.38143818 178.14333775 -288.22084544 164.10425989 -298.06176758 150.06738281 C-302.01287477 144.42568751 -305.92529899 138.7587677 -309.81762695 133.07641602 C-313.51040516 127.69316301 -317.25096937 122.34419053 -321 117 C-325.19548198 111.01939933 -329.37151363 105.02705443 -333.5 99 C-336.9890699 93.90836598 -340.50203698 88.83439521 -344.04248047 83.77832031 C-345.21955802 82.0969665 -346.39437623 80.41402864 -347.56689453 78.72949219 C-350.65781843 74.29783429 -353.79243351 69.90775413 -357.00390625 65.5625 C-357.65190186 64.67272461 -358.29989746 63.78294922 -358.9675293 62.86621094 C-360.20754469 61.16545515 -361.46222452 59.47526164 -362.73364258 57.79785156 C-366.48948537 52.6055219 -367.90475353 49.43070972 -367 43 C-365.01078114 40.0161717 -363.61497432 38.39723159 -360.0625 37.5234375 C-356.18850089 37.24462696 -354.68877335 37.41091753 -351.625 40.03125 C-348.49397194 43.57229364 -345.73513203 47.27419455 -343 51.125 C-342.15296509 52.30763428 -342.15296509 52.30763428 -341.28881836 53.51416016 C-336.75890417 59.86671341 -332.33878852 66.29219802 -327.95166016 72.74389648 C-323.97383113 78.59248668 -319.93958946 84.39890858 -315.875 90.1875 C-311.32308399 96.67222576 -306.8019271 103.17585537 -302.32373047 109.71166992 C-298.2435194 115.66043724 -294.12308001 121.58088863 -290 127.5 C-285.43823552 134.04888867 -280.88627841 140.60372354 -276.375 147.1875 C-271.8055738 153.85299327 -267.1774754 160.47632292 -262.53808594 167.09326172 C-256.0113425 176.40383224 -249.52187387 185.74021261 -243.03222656 195.07666016 C-239.68938945 199.88530162 -236.34460619 204.69258892 -233 209.5 C-231.66665713 211.41666003 -230.3333238 213.3333267 -229 215.25 C-228.34 216.19875 -227.68 217.1475 -227 218.125 C-221 226.75000001 -221 226.75000001 -218.99951172 229.62573242 C-217.66784415 231.53998423 -216.3361385 233.45420954 -215.00439453 235.3684082 C-211.64526025 240.19680432 -208.28681497 245.02567707 -204.9296875 249.85546875 C-196.88011604 261.43458674 -188.81088427 272.99961381 -180.71777344 284.54833984 C-177.22499519 289.53334256 -173.7353709 294.52055381 -170.24511719 299.50732422 C-167.35451808 303.63709659 -164.46323311 307.7663847 -161.5703125 311.89453125 C-154.68271938 321.72500507 -147.81705622 331.57042296 -140.96582031 341.42626953 C-134.90199382 350.14686679 -128.81341689 358.84996444 -122.71777344 367.54833984 C-119.23012538 372.5260206 -115.74562241 377.5059037 -112.26049805 382.48535156 C-109.28274683 386.7396398 -106.30420183 390.99336849 -103.32421875 395.24609375 C-102.71513672 396.11556641 -102.10605469 396.98503906 -101.47851562 397.88085938 C-100.3381802 399.50866644 -99.19758376 401.13629071 -98.05664062 402.76367188 C-93.34472328 409.49089288 -88.67074249 416.24416333 -84 423 C-85.55908894 418.29053085 -87.12223111 413.582418 -88.6875 408.875 C-88.94276459 408.10726257 -89.19802917 407.33952515 -89.46102905 406.54852295 C-93.6810814 393.8667246 -97.95972588 381.20520777 -102.2611084 368.55079651 C-106.5569888 355.91210217 -110.83400966 343.2670863 -115.10192871 330.61892414 C-116.50261503 326.46919817 -117.90873467 322.3213456 -119.31738281 318.17431641 C-126.94223064 295.69670491 -134.43507353 273.54203439 -138 250 C-138.25378418 248.34846924 -138.25378418 248.34846924 -138.51269531 246.66357422 C-147.16214971 188.05371115 -132.73420543 130.99836075 -98 83 C-97.57654297 82.4136377 -97.15308594 81.82727539 -96.71679688 81.22314453 C-88.08792345 69.40459642 -78.45840631 58.23024418 -68 48 C-72.39093333 41.85269333 -77.23361647 36.19151222 -82.2409668 30.54467773 C-83.05174683 29.62344116 -83.05174683 29.62344116 -83.87890625 28.68359375 C-84.3591626 28.14275146 -84.83941895 27.60190918 -85.33422852 27.04467773 C-87.70453949 24.13520179 -89.84450355 21.07051871 -92 18 C-61.36770011 11.81609756 -30.70211 5.82730087 0 0 Z " fill="#FCFCFC" transform="translate(571,271)"/>
<path d="M0 0 C0.99 3.3 1.98 6.6 3 10 C0.03595495 7.19195732 -2.44499019 4.81684226 -4 1 C-2 0 -2 0 0 0 Z " fill="#131314" transform="translate(485,685)"/>
</svg>
